<?xml version="1.0" encoding="utf-8"?>
<!-- Generator: Adobe Illustrator 20.1.0, SVG Export Plug-In . SVG Version: 6.00 Build 0)  -->
<svg version="1.1" id="States" xmlns="http://www.w3.org/2000/svg" xmlns:xlink="http://www.w3.org/1999/xlink" x="0px" y="0px"
	 viewBox="-102 100 594 402" enable-background="new -102 100 594 402" xml:space="preserve">
<rect id="Maine" x="424.2" y="110" fill="#FBECE8" width="44" height="44"/>
<text transform="matrix(1 0 0 1 435.0465 135.3467)" font-family="'HelveticaNeue-Light'" font-size="13.9979px">ME</text>
<rect id="Wisconsin" x="194.1" y="156" fill="#FBECE8" width="44" height="44"/>
<text transform="matrix(1 0 0 1 207.4385 181.3624)" font-family="'HelveticaNeue-Light'" font-size="13.9979px">WI</text>
<rect id="Vermont" x="378.1" y="156" fill="#EEEEEE" width="44" height="44"/>
<text transform="matrix(1 0 0 1 392.4224 181.3624)" font-family="'HelveticaNeue-Light'" font-size="13.9979px">VT</text>
<rect id="New_Hampshire" x="424.2" y="156" fill="#EEEEEE" width="44" height="44"/>
<text transform="matrix(1 0 0 1 435.0465 181.3624)" font-family="'HelveticaNeue-Light'" font-size="13.9979px">NH</text>
<rect id="Washington" x="-36" y="202" fill="#FBECE8" width="44" height="44"/>
<text transform="matrix(1 0 0 1 -25.6528 227.919)" font-family="'HelveticaNeue-Light'" font-size="13.9979px">WA</text>
<rect id="Idaho" x="10" y="202" fill="#FBECE8" width="44" height="44"/>
<text transform="matrix(1 0 0 1 25.4629 227.919)" font-family="'HelveticaNeue-Light'" font-size="13.9979px">ID</text>
<rect id="Montana" x="56" y="202" fill="#FBECE8" width="44" height="44"/>
<text transform="matrix(1 0 0 1 68.688 227.919)" font-family="'HelveticaNeue-Light'" font-size="13.9979px">MT</text>
<rect id="North_Dakota" x="102.1" y="202" fill="#EEEEEE" width="44" height="44"/>
<text transform="matrix(1 0 0 1 113.8375 227.919)" font-family="'HelveticaNeue-Light'" font-size="13.9979px">ND</text>
<rect id="Minnesota" x="148.1" y="202" fill="#FBECE8" width="44" height="44"/>
<text transform="matrix(1 0 0 1 160.3941 227.919)" font-family="'HelveticaNeue-Light'" font-size="13.9979px">MN</text>
<rect id="Illinois" x="194.1" y="202" fill="#FBECE8" width="44" height="44"/>
<text transform="matrix(1 0 0 1 210.0074 227.919)" font-family="'HelveticaNeue-Light'" font-size="13.9979px">IL</text>
<rect id="Michigan" x="240.1" y="202" fill="#E58972" width="44" height="44"/>
<text transform="matrix(1 0 0 1 254.7349 227.9185)" font-family="'HelveticaNeue-Light'" font-size="13.9979px">MI</text>
<rect id="New_York" x="332.1" y="202" fill="#FBECE8" width="44" height="44"/>
<text transform="matrix(1 0 0 1 345.5396 227.9185)" font-family="'HelveticaNeue-Light'" font-size="13.9979px">NY</text>
<rect id="Massachusetts" x="378.1" y="202" fill="#EEEEEE" width="44" height="44"/>
<text transform="matrix(1 0 0 1 390.2525 227.9185)" font-family="'HelveticaNeue-Light'" font-size="13.9979px">MA</text>
<rect id="Oregon" x="-36" y="248" fill="#EEEEEE" width="44" height="44"/>
<text transform="matrix(1 0 0 1 -24.8266 275.4112)" font-family="'HelveticaNeue-Light'" font-size="13.9979px">OR</text>
<rect id="Nevada" x="10" y="248" fill="#FBECE8" width="44" height="44"/>
<text transform="matrix(1 0 0 1 22.6705 275.4116)" font-family="'HelveticaNeue-Light'" font-size="13.9979px">NV</text>
<rect id="Wyoming" x="56" y="248" fill="#FBECE8" width="44" height="44"/>
<text transform="matrix(1 0 0 1 67.6661 275.4116)" font-family="'HelveticaNeue-Light'" font-size="13.9979px">WY</text>
<rect id="South_Dakota" x="102.1" y="248" fill="#FBECE8" width="44" height="44"/>
<text transform="matrix(1 0 0 1 114.3561 275.4116)" font-family="'HelveticaNeue-Light'" font-size="13.9979px">SD</text>
<rect id="Iowa" x="148.1" y="248" fill="#FBECE8" width="44" height="44"/>
<text transform="matrix(1 0 0 1 165.0557 275.4116)" font-family="'HelveticaNeue-Light'" font-size="13.9979px">IA</text>
<rect id="Indiana" x="194.1" y="248" fill="#F4CBC1" width="44" height="44"/>
<text transform="matrix(1 0 0 1 208.8599 275.4116)" font-family="'HelveticaNeue-Light'" font-size="13.9979px">IN</text>
<rect id="Ohio" x="240.1" y="248" fill="#FBECE8" width="44" height="44"/>
<text transform="matrix(1 0 0 1 251.9214 275.4116)" font-family="'HelveticaNeue-Light'" font-size="13.9979px">OH</text>
<rect id="Pennsylvania" x="286.1" y="248" fill="#EEEEEE" width="44" height="44"/>
<text transform="matrix(1 0 0 1 299.942 275.4117)" font-family="'HelveticaNeue-Light'" font-size="13.9979px">PA</text>
<rect id="New_Jersey" x="332.1" y="248" fill="#FBECE8" width="44" height="44"/>
<text transform="matrix(1 0 0 1 346.3853 275.4116)" font-family="'HelveticaNeue-Light'" font-size="13.9979px">NJ</text>
<rect id="Connecticut" x="378.1" y="248" fill="#EEEEEE" width="44" height="44"/>
<text transform="matrix(1 0 0 1 391.603 275.4116)" font-family="'HelveticaNeue-Light'" font-size="13.9979px">CT</text>
<rect id="Rhode_Island" x="424.2" y="248" fill="#EEEEEE" width="44" height="44"/>
<text transform="matrix(1 0 0 1 438.6793 275.4117)" font-family="'HelveticaNeue-Light'" font-size="13.9979px">RI</text>
<rect id="California" x="-36" y="294" fill="#FBECE8" width="44" height="44"/>
<text transform="matrix(1 0 0 1 -24.3579 319.6319)" font-family="'HelveticaNeue-Light'" font-size="13.9979px">CA</text>
<rect id="Utah" x="10" y="294" fill="#F4CBC1" width="44" height="44"/>
<text transform="matrix(1 0 0 1 23.0904 319.6323)" font-family="'HelveticaNeue-Light'" font-size="13.9979px">UT</text>
<rect id="Colorado" x="56" y="294" fill="#FBECE8" width="44" height="44"/>
<text transform="matrix(1 0 0 1 68.2471 319.6323)" font-family="'HelveticaNeue-Light'" font-size="13.9979px">CO</text>
<rect id="Nebraska" x="102.1" y="294" fill="#FBECE8" width="44" height="44"/>
<text transform="matrix(1 0 0 1 114.482 319.6323)" font-family="'HelveticaNeue-Light'" font-size="13.9979px">NE</text>
<rect id="Missouri" x="148.1" y="294" fill="#FBECE8" width="44" height="44"/>
<text transform="matrix(1 0 0 1 160.1353 319.6323)" font-family="'HelveticaNeue-Light'" font-size="13.9979px">MO</text>
<rect id="Kentucky" x="194.1" y="294" fill="#FBECE8" width="44" height="44"/>
<text transform="matrix(1 0 0 1 206.4596 319.6323)" font-family="'HelveticaNeue-Light'" font-size="13.9979px">KY</text>
<rect id="West_Virginia" x="240.1" y="294" fill="#FBECE8" width="44" height="44"/>
<text transform="matrix(1 0 0 1 251.4732 319.6323)" font-family="'HelveticaNeue-Light'" font-size="13.9979px">WV</text>
<rect id="Virginia" x="286.1" y="294" fill="#DD684B" width="44" height="44"/>
<text transform="matrix(1 0 0 1 300.1099 319.6319)" font-family="'HelveticaNeue-Light'" font-size="13.9979px">VA</text>
<rect id="Maryland" x="332.1" y="294" fill="#FBECE8" width="44" height="44"/>
<text transform="matrix(1 0 0 1 344.2721 319.6323)" font-family="'HelveticaNeue-Light'" font-size="13.9979px">MD</text>
<rect id="Delaware" x="378.1" y="294" fill="#EEEEEE" width="44" height="44"/>
<text transform="matrix(1 0 0 1 391.5122 319.6323)" font-family="'HelveticaNeue-Light'" font-size="13.9979px">DE</text>
<rect id="Arizona" x="10" y="339.7" fill="#FBECE8" width="44" height="44"/>
<text transform="matrix(1 0 0 1 23.4263 367.125)" font-family="'HelveticaNeue-Light'" font-size="13.9979px">AZ</text>
<rect id="New_Mexico" x="56" y="339.7" fill="#FBECE8" width="44" height="44"/>
<text transform="matrix(1 0 0 1 67.6871 367.125)" font-family="'HelveticaNeue-Light'" font-size="13.9979px">NM</text>
<rect id="Kansas" x="102.1" y="339.7" fill="#ECAA9A" width="44" height="44"/>
<text transform="matrix(1 0 0 1 114.6148 367.125)" font-family="'HelveticaNeue-Light'" font-size="13.9979px">KS</text>
<rect id="Arkansas" x="148.1" y="339.7" fill="#ECAA9A" width="44" height="44"/>
<text transform="matrix(1 0 0 1 162.0323 367.125)" font-family="'HelveticaNeue-Light'" font-size="13.9979px">AR</text>
<rect id="Tennessee" x="194.1" y="339.7" fill="#F4CBC1" width="44" height="44"/>
<text transform="matrix(1 0 0 1 206.5503 367.125)" font-family="'HelveticaNeue-Light'" font-size="13.9979px">TN</text>
<rect id="North_Carolina" x="240.1" y="339.7" fill="#ECAA9A" width="44" height="44"/>
<text transform="matrix(1 0 0 1 252.1802 367.125)" font-family="'HelveticaNeue-Light'" font-size="13.9979px">NC</text>
<rect id="South_Carolina" x="286.1" y="339.7" fill="#FBECE8" width="44" height="44"/>
<text transform="matrix(1 0 0 1 298.9557 367.125)" font-family="'HelveticaNeue-Light'" font-size="13.9979px">SC</text>
<rect id="DC" x="332.1" y="339.7" fill="#EEEEEE" width="44" height="44"/>
<text transform="matrix(1 0 0 1 345.0904 367.125)" font-family="'HelveticaNeue-Light'" font-size="13.9979px">DC</text>
<rect id="Oklahoma" x="102.1" y="385.7" fill="#F4CBC1" width="44" height="44"/>
<text transform="matrix(1 0 0 1 113.7398 411.7022)" font-family="'HelveticaNeue-Light'" font-size="13.9979px">OK</text>
<rect id="Louisiana" x="148.1" y="385.7" fill="#FBECE8" width="44" height="44"/>
<text transform="matrix(1 0 0 1 162.8511 411.7022)" font-family="'HelveticaNeue-Light'" font-size="13.9979px">LA</text>
<rect id="Mississippi" x="194.1" y="385.7" fill="#ECAA9A" width="44" height="44"/>
<text transform="matrix(1 0 0 1 205.1852 411.7022)" font-family="'HelveticaNeue-Light'" font-size="13.9979px">MS</text>
<rect id="Alabama" x="240.1" y="385.7" fill="#FBECE8" width="44" height="44"/>
<text transform="matrix(1 0 0 1 253.8883 411.7022)" font-family="'HelveticaNeue-Light'" font-size="13.9979px">AL</text>
<rect id="Georgia" x="286.1" y="385.7" fill="#FBECE8" width="44" height="44"/>
<text transform="matrix(1 0 0 1 298.6475 411.7022)" font-family="'HelveticaNeue-Light'" font-size="13.9979px">GA</text>
<rect id="Alaska" x="-82" y="431.7" fill="#FBECE8" width="44" height="44"/>
<text transform="matrix(1 0 0 1 -70.1567 457.7374)" font-family="'HelveticaNeue-Light'" font-size="13.9979px">AK</text>
<rect id="Hawaii" x="-36" y="431.7" fill="#FBECE8" width="44" height="44"/>
<text transform="matrix(1 0 0 1 -20.5712 457.7373)" font-family="'HelveticaNeue-Light'" font-size="13.9979px">HI</text>
<rect id="Texas" x="102.1" y="431.7" fill="#FBECE8" width="44" height="44"/>
<text transform="matrix(1 0 0 1 115.6085 457.4736)" font-family="'HelveticaNeue-Light'" font-size="13.9979px">TX</text>
<rect id="FL_1_" x="332.1" y="431.7" fill="#F4CBC1" width="44" height="44"/>
<text id="Florida" transform="matrix(1 0 0 1 347.275 457.4737)" font-family="'HelveticaNeue-Light'" font-size="13.9979px">FL</text>
</svg>
